<svg xmlns="http://www.w3.org/2000/svg" viewBox="0 0 64 64" width="64" height="64">
  <defs>
    <!-- Glow filter for hover effect -->
    <filter id="glow">
      <feGaussianBlur stdDeviation="2.5" result="coloredBlur"/>
      <feMerge>
        <feMergeNode in="coloredBlur"/>
        <feMergeNode in="SourceGraphic"/>
      </feMerge>
    </filter>
  </defs>
  <g transform="translate(0,5)">
    <!-- Left silhouette (scaled 80% around its bottom center at (22,44)) -->
    <g transform="translate(-10,0) translate(22,44) scale(0.8) translate(-22,-44)">
      <g stroke="#2ecc71" stroke-width="2" stroke-linejoin="round" filter="url(#glow)">
        <circle cx="32" cy="20" r="10" fill="#111111" />
        <path d="M16 40c0-6.627 7.163-12 16-12s16 5.373 16 12v4H16v-4z" fill="#111111" />
      </g>
    </g>
    
    <!-- Right silhouette (scaled 80% around its bottom center at (42,44)) -->
    <g transform="translate(10,0) translate(42,44) scale(0.8) translate(-42,-44)">
      <g stroke="#2ecc71" stroke-width="2" stroke-linejoin="round" filter="url(#glow)">
        <circle cx="32" cy="20" r="10" fill="#111111" />
        <path d="M16 40c0-6.627 7.163-12 16-12s16 5.373 16 12v4H16v-4z" fill="#111111" />
      </g>
    </g>
    
    <!-- Center silhouette (full size) -->
    <g>
      <g stroke="#2ecc71" stroke-width="2" stroke-linejoin="round" filter="url(#glow)">
        <circle cx="32" cy="20" r="10" fill="black" />
        <path d="M16 40c0-6.627 7.163-12 16-12s16 5.373 16 12v4H16v-4z" fill="black" />
      </g>
    </g>
  </g>
</svg>
